<svg width="71" height="70" viewBox="0 0 71 70" fill="none" xmlns="http://www.w3.org/2000/svg">
<path d="M24.804 41.5625C24.804 47.1625 29.4123 51.7708 35.0123 51.7708C40.6123 51.7708 45.2206 47.1625 45.2206 41.5625" stroke="white" stroke-width="6" stroke-miterlimit="10" stroke-linecap="round" stroke-linejoin="round"/>
<path d="M25.708 5.83331L15.1497 16.4208" stroke="white" stroke-width="6" stroke-miterlimit="10" stroke-linecap="round" stroke-linejoin="round"/>
<path d="M44.3164 5.83331L54.8747 16.4208" stroke="white" stroke-width="6" stroke-miterlimit="10" stroke-linecap="round" stroke-linejoin="round"/>
<path d="M5.84546 22.8958C5.84546 17.5 8.73296 17.0625 12.3205 17.0625H57.7038C61.2913 17.0625 64.1788 17.5 64.1788 22.8958C64.1788 29.1667 61.2913 28.7292 57.7038 28.7292H12.3205C8.73296 28.7292 5.84546 29.1667 5.84546 22.8958Z" stroke="white" stroke-width="6"/>
<path d="M10.2205 29.1667L14.333 54.3667C15.2663 60.025 17.5121 64.1667 25.8538 64.1667H43.4413C52.5121 64.1667 53.8538 60.2 54.9038 54.7167L59.8038 29.1667" stroke="white" stroke-width="6" stroke-linecap="round"/>
</svg>
