<svg width="40" height="40" viewBox="0 0 40 40" fill="none" xmlns="http://www.w3.org/2000/svg">
<path d="M20.0083 36.6715C10.8035 36.6715 3.34155 29.2097 3.34155 20.0049C3.34155 10.8002 10.8035 3.33826 20.0083 3.33826C29.2129 3.33826 36.6749 10.8002 36.6749 20.0049C36.6749 29.2097 29.2129 36.6715 20.0083 36.6715ZM18.3416 26.6715V30.0049H21.6749V26.6715H23.3416C25.6428 26.6715 27.5083 24.806 27.5083 22.5049C27.5083 21.5669 27.1983 20.7014 26.6753 20.0049C27.1983 19.3085 27.5083 18.4429 27.5083 17.5049C27.5083 15.2037 25.6428 13.3383 23.3416 13.3383H21.6749V10.0049H18.3416V13.3383H13.3416V26.6715H18.3416ZM16.6749 21.6715H23.3416C23.8018 21.6715 24.1749 22.0447 24.1749 22.5049C24.1749 22.9652 23.8018 23.3382 23.3416 23.3382H16.6749V21.6715ZM16.6749 16.6715H23.3416C23.8018 16.6715 24.1749 17.0447 24.1749 17.5049C24.1749 17.9652 23.8018 18.3382 23.3416 18.3382H16.6749V16.6715Z" fill="white"/>
</svg>
