<svg width="81" height="80" viewBox="0 0 81 80" fill="none" xmlns="http://www.w3.org/2000/svg">
<path d="M31.9121 41.5333L21.7455 51.7" stroke="white" stroke-width="6" stroke-miterlimit="10" stroke-linecap="round" stroke-linejoin="round"/>
<path d="M21.8456 41.6333L32.0122 51.8" stroke="white" stroke-width="6" stroke-miterlimit="10" stroke-linecap="round" stroke-linejoin="round"/>
<path d="M45.1122 46.6667H45.1455" stroke="white" stroke-width="6" stroke-miterlimit="10" stroke-linecap="round" stroke-linejoin="round"/>
<path d="M58.2455 46.6667H58.2788" stroke="white" stroke-width="6" stroke-miterlimit="10" stroke-linecap="round" stroke-linejoin="round"/>
<path d="M51.6788 53.2667V53.2" stroke="white" stroke-width="6" stroke-miterlimit="10" stroke-linecap="round" stroke-linejoin="round"/>
<path d="M51.6788 40.1333V40.0667" stroke="white" stroke-width="6" stroke-miterlimit="10" stroke-linecap="round" stroke-linejoin="round"/>
<path d="M30.0122 73.3333H50.0122C66.6788 73.3333 73.3455 66.6667 73.3455 50V43.3333C73.3455 26.6667 66.6788 20 50.0122 20H30.0122C13.3455 20 6.67883 26.6667 6.67883 43.3333V50C6.67883 66.6667 13.3455 73.3333 30.0122 73.3333Z" stroke="white" stroke-width="6" stroke-linecap="round" stroke-linejoin="round"/>
<path d="M43.3789 6.66669L43.3455 10.0334C43.3122 11.8667 41.8455 13.3334 40.0122 13.3334H39.9122C38.0789 13.3334 36.6122 14.8334 36.6122 16.6667C36.6122 18.5 38.1122 20 39.9455 20H43.2788" stroke="white" stroke-width="6" stroke-linecap="round" stroke-linejoin="round"/>
</svg>
