<svg width="71" height="70" viewBox="0 0 71 70" fill="none" xmlns="http://www.w3.org/2000/svg">
<path d="M26.1747 64.1666H43.6747C58.2581 64.1666 64.0914 58.3333 64.0914 43.75V26.25C64.0914 11.6666 58.2581 5.83331 43.6747 5.83331H26.1747C11.5914 5.83331 5.75806 11.6666 5.75806 26.25V43.75C5.75806 58.3333 11.5914 64.1666 26.1747 64.1666Z" stroke="white" stroke-width="6" stroke-linecap="round" stroke-linejoin="round"/>
<path d="M5.75806 37.0416L23.2581 36.9833C25.4456 36.9833 27.8956 38.6458 28.7122 40.6875L32.0372 49.0875C32.7956 50.9833 33.9914 50.9833 34.7497 49.0875L41.4289 32.1416C42.0706 30.5083 43.2664 30.45 44.0831 31.9958L47.1164 37.7416C48.0206 39.4625 50.3539 40.8625 52.2789 40.8625H64.1206" stroke="white" stroke-width="6" stroke-linecap="round" stroke-linejoin="round"/>
</svg>
