<svg width="40" height="40" viewBox="0 0 40 40" fill="none" xmlns="http://www.w3.org/2000/svg">
<path d="M30.0017 33.3334H33.3334V36.6667H20C10.7953 36.6667 3.33337 29.2047 3.33337 20C3.33337 10.7953 10.7953 3.33337 20 3.33337C29.2047 3.33337 36.6667 10.7953 36.6667 20C36.6667 25.452 34.0489 30.2925 30.0017 33.3334ZM20 16.6667C21.841 16.6667 23.3334 15.1743 23.3334 13.3334C23.3334 11.4924 21.841 10 20 10C18.159 10 16.6667 11.4924 16.6667 13.3334C16.6667 15.1743 18.159 16.6667 20 16.6667ZM13.3334 23.3334C15.1743 23.3334 16.6667 21.841 16.6667 20C16.6667 18.159 15.1743 16.6667 13.3334 16.6667C11.4924 16.6667 10 18.159 10 20C10 21.841 11.4924 23.3334 13.3334 23.3334ZM26.6667 23.3334C28.5077 23.3334 30 21.841 30 20C30 18.159 28.5077 16.6667 26.6667 16.6667C24.8257 16.6667 23.3334 18.159 23.3334 20C23.3334 21.841 24.8257 23.3334 26.6667 23.3334ZM20 30C21.841 30 23.3334 28.5077 23.3334 26.6667C23.3334 24.8257 21.841 23.3334 20 23.3334C18.159 23.3334 16.6667 24.8257 16.6667 26.6667C16.6667 28.5077 18.159 30 20 30Z" fill="white"/>
</svg>
