<svg width="71" height="70" viewBox="0 0 71 70" fill="none" xmlns="http://www.w3.org/2000/svg">
<path d="M49.5955 64.1667H20.4288C11.6788 64.1667 5.84546 59.7917 5.84546 49.5834V35C5.84546 24.7917 11.6788 20.4167 20.4288 20.4167H49.5955C58.3455 20.4167 64.1788 24.7917 64.1788 35V49.5834C64.1788 59.7917 58.3455 64.1667 49.5955 64.1667Z" stroke="white" stroke-width="6" stroke-miterlimit="10" stroke-linecap="round" stroke-linejoin="round"/>
<path d="M17.5122 13.125H52.5122" stroke="white" stroke-width="4" stroke-miterlimit="10" stroke-linecap="round" stroke-linejoin="round"/>
<path d="M26.2622 5.83331H43.7622" stroke="white" stroke-width="4" stroke-miterlimit="10" stroke-linecap="round" stroke-linejoin="round"/>
<path d="M25.9414 55.7375C28.1482 55.7375 29.9372 53.9485 29.9372 51.7417C29.9372 49.5348 28.1482 47.7458 25.9414 47.7458C23.7345 47.7458 21.9456 49.5348 21.9456 51.7417C21.9456 53.9485 23.7345 55.7375 25.9414 55.7375Z" stroke="white" stroke-width="3" stroke-linecap="round" stroke-linejoin="round"/>
<path d="M44.579 49.0876V33.4834C44.579 30.1584 42.5081 29.6918 40.379 30.2751L32.3872 32.4626C30.9288 32.8709 29.9373 34.0084 29.9373 35.6709V38.4417V40.3084V51.7417" stroke="white" stroke-width="3" stroke-linecap="round" stroke-linejoin="round"/>
<path d="M40.583 53.0834C42.7898 53.0834 44.579 51.2944 44.579 49.0876C44.579 46.8807 42.7898 45.0917 40.583 45.0917C38.3761 45.0917 36.5872 46.8807 36.5872 49.0876C36.5872 51.2944 38.3761 53.0834 40.583 53.0834Z" stroke="white" stroke-width="3" stroke-linecap="round" stroke-linejoin="round"/>
<path d="M29.9373 40.3376L44.579 36.3417" stroke="white" stroke-width="3" stroke-linecap="round" stroke-linejoin="round"/>
</svg>
