<svg width="1075" height="522" viewBox="0 0 1075 522" fill="none" xmlns="http://www.w3.org/2000/svg">
<path opacity="0.2" d="M23.4054 0.864733C0.369868 26.467 -5.40824 64.3398 5.46852 96.4885C16.74 129.791 45.8968 152.217 80.6824 156.118C114.259 159.865 150.742 146.712 169.697 117.688C187.427 90.5362 189.336 48.2803 158.091 30.008C131.703 14.5819 92.4717 22.7751 76.4571 49.4128C60.4425 76.0505 69.1975 111.871 90.7143 132.709C117.87 158.994 159.248 154.415 192.178 143.447C232.111 130.225 271.07 104.361 314.794 108.76C349.267 112.229 380.563 133.836 398.53 163.091C407.625 177.686 412.931 194.323 413.968 211.496C414.935 230.242 408.733 251.374 394.256 264.116C378.154 278.293 356.131 274.03 342.849 258.297C328.261 240.986 327.804 216.966 328.32 195.449C329.316 154.36 336.039 109.309 363.626 76.9221C388.085 48.2766 429.655 30.6369 465.767 47.4593C506.706 66.5339 521.594 113.856 523.083 155.725C523.886 178.439 521.782 201.213 519.854 223.833C517.897 246.83 515.779 269.833 514.906 292.924C513.296 336.676 516.443 381.142 533.436 421.941C549.373 460.215 577.098 493.721 616.221 509.545C652.631 524.33 693.68 523.662 731.514 514.903C778.809 504.004 822.544 481.538 866.238 461.102L1006.39 395.564L1073.6 364.134C1075.04 363.458 1074.17 361.13 1072.72 361.79L934.249 426.538C889.203 447.609 844.502 469.746 798.783 489.317C758.078 506.729 714.662 520.619 669.891 518.361C650.064 517.362 630.293 513.252 612.157 505.043C592.496 495.967 575.248 482.403 561.799 465.441C502.764 392.045 517.084 292.747 523.844 205.793C527.052 164.366 528.765 119.579 506.592 82.6075C497.021 66.6162 483.259 52.6128 466.126 44.8427C450.524 37.9347 433.049 36.4451 416.484 40.611C380.51 49.2855 353.73 78.061 340.391 111.589C332.957 130.351 329.127 150.359 327.249 170.352C325.341 190.779 323.82 212.803 328.261 232.956C332.047 250.115 342.398 267.146 359.632 273.404C375.032 278.987 390.758 272.907 400.989 260.728C423.274 234.202 419.1 195.302 403.52 166.747C388.059 138.433 360.584 116.434 329.133 108.698C289.094 98.8795 250.912 117.181 214.745 132.175C180.495 146.386 136.142 160.652 101.973 138.505C74.6774 120.817 61.353 80.8598 78.0075 51.6902C94.8169 22.2032 141.727 15.2143 166.013 39.1619C195.128 67.8532 176.167 116.916 147.037 137.469C117.908 158.022 76.2376 159.88 45.3197 142.193C13.1524 123.765 -1.58071 85.0867 3.72173 49.2706C6.16137 31.8885 13.6862 15.6072 25.3505 2.47307C26.4377 1.26222 24.4736 -0.27754 23.4054 0.864733Z" fill="white"/>
</svg>
