<svg width="102" height="82" viewBox="0 0 102 82" fill="none" xmlns="http://www.w3.org/2000/svg">
<path d="M5.79126 30.7227V43.8185C5.79126 56.9143 11.0413 62.1643 24.1371 62.1643H39.8579C52.9538 62.1643 58.2038 56.9143 58.2038 43.8185V30.7227" stroke="white" stroke-width="6" stroke-linecap="round" stroke-linejoin="round"/>
<path d="M32.0123 33.0036C37.3498 33.0036 41.2873 28.6577 40.7623 23.3202L38.8373 3.83691H25.2165L23.2623 23.3202C22.7373 28.6577 26.6748 33.0036 32.0123 33.0036Z" stroke="white" stroke-width="6" stroke-linecap="round" stroke-linejoin="round"/>
<path d="M50.4163 33.0036C56.308 33.0036 60.6246 28.2202 60.0413 22.3577L59.2246 14.3369C58.1746 6.75358 55.258 3.83691 47.6163 3.83691H38.7205L40.7621 24.2827C41.258 29.0952 45.6038 33.0036 50.4163 33.0036Z" stroke="white" stroke-width="6" stroke-linecap="round" stroke-linejoin="round"/>
<path d="M13.4622 33.0036C18.2747 33.0036 22.6206 29.0952 23.0872 24.2827L23.7289 17.8369L25.1289 3.83691H16.2331C8.5914 3.83691 5.67473 6.75358 4.62473 14.3369L3.83723 22.3577C3.2539 28.2202 7.57056 33.0036 13.4622 33.0036Z" stroke="white" stroke-width="6" stroke-linecap="round" stroke-linejoin="round"/>
<path d="M32.0121 47.5869C27.1413 47.5869 24.7205 50.0077 24.7205 54.8786V62.1702H39.3038V54.8786C39.3038 50.0077 36.883 47.5869 32.0121 47.5869Z" stroke="white" stroke-width="6" stroke-linecap="round" stroke-linejoin="round"/>
</svg>
