<svg width="40" height="40" viewBox="0 0 40 40" fill="none" xmlns="http://www.w3.org/2000/svg">
<path d="M20 21.7679L27.45 29.2184L20 36.6667L12.55 29.2167L20 21.7679ZM6.66617 26.8679L13.1312 33.3329L6.66671 33.3334L6.66617 26.8679ZM33.3329 26.8679L33.3334 33.3334L26.8679 33.3329L33.3329 26.8679ZM29.2167 12.55L36.6667 20L29.2184 27.45L21.7679 20L29.2167 12.55ZM10.7834 12.55L18.2322 20L10.7817 27.4484L3.33337 20L10.7834 12.55ZM20 3.33337L27.4484 10.7817L20 18.2322L12.55 10.7834L20 3.33337ZM13.1312 6.66617L6.66617 13.1312L6.66671 6.66671L13.1312 6.66617ZM33.3334 6.66671L33.3329 13.1312L26.8679 6.66617L33.3334 6.66671Z" fill="white"/>
</svg>
